<svg id="Layer_1" enable-background="new 0 0 511.999 511.999" height="512" viewBox="0 0 511.999 511.999" width="512" xmlns="http://www.w3.org/2000/svg"><path d="m175.981 143.999v32c0 4.418 3.582 8 8 8h144c4.418 0 8-3.582 8-8v-32c0-2.407 1.435-4.381 4.418-8.264 17.29-22.506 12.452-39.589 3.698-66.639-5.818-17.981-4.364-11.588-7.697-51.581-.818-9.816-8.864-17.313-18.714-17.436l-6.305-.079c-10.602-.116-19.248 8.386-19.267 18.987v16.653c-.024 19.907-16.26 36.12-36.176 36.12-19.883 0-36.128-16.165-36.188-36.055v-16.425c-.043-10.354-8.528-18.85-18.882-18.938-7.041-.06-6.126-.053-6.371-.053-9.825 0-18.136 7.631-18.953 17.438l-2.783 33.392c-.77 9.222-12.781 27.625-12.781 52.879.001 25.592 16.001 32.735 16.001 40.001zm144 24h-128v-16h128z"/><path d="m339.292 264.724c-4.13-22.394-3.27-18.189-3.312-56.733-.005-4.415-3.585-7.991-8-7.991h-144.032c-4.42 0-8.004 3.587-8 8.008.037 38.227.897 34.067-3.278 56.713-14.04 76.149 9.208 87.989 19.329 239.812.28 4.202 3.771 7.468 7.982 7.468h32c4.148 0 7.608-3.171 7.97-7.304l16.014-183.197 16.046 183.198c.362 4.132 3.822 7.302 7.97 7.302h32c4.212 0 7.702-3.266 7.982-7.468 10.221-153.281 33.483-163.015 19.329-239.808zm-19.295-48.725v15.934c-79.055-.656-50.266-.646-128.032 0v-15.933h128.032z"/></svg>