<svg id="Capa_1" enable-background="new 0 0 512 512" height="512" viewBox="0 0 512 512" width="512" xmlns="http://www.w3.org/2000/svg"><g><g><path d="m477.907 115.983c-7.395-10.438-11.303-22.713-11.303-35.497v-70.486c0-5.522-4.478-10-10-10h-57.624c-5.522 0-10 4.478-10 10v53.947c0 22.08-17.979 40.044-40.078 40.044s-40.078-17.964-40.078-40.044v-53.947c0-5.522-4.478-10-10-10h-57.624c-5.523 0-10 4.478-10 10v70.486c0 12.783-3.909 25.059-11.304 35.497-1.197 1.689-1.84 3.709-1.84 5.78v103.258h-175.803c-5.523 0-10 4.478-10 10v266.979c0 5.522 4.477 10 10 10h113.587c5.523 0 10-4.478 10-10v-117.659h21.935v117.659c0 5.522 4.477 10 10 10h113.587c5.522 0 10-4.478 10-10v-17.317c0-5.522-4.478-10-10-10s-10 4.478-10 10v7.317h-93.587v-117.659c0-5.522-4.477-10-10-10h-41.935c-5.523 0-10 4.478-10 10v117.659h-93.587v-106.761h21.077c18.564 0 33.667-15.104 33.667-33.668v-54.619h33.986v23.406c0 5.522 4.477 10 10 10s10-4.478 10-10v-23.406h31.649v39.741c0 5.522 4.477 10 10 10s10-4.478 10-10v-39.741h33.986v54.619c0 18.564 15.103 33.668 33.667 33.668h21.077v9.03c0 5.522 4.478 10 10 10s10-4.478 10-10v-97.317h148.386c5.522 0 10-4.478 10-10v-165.188c-.001-2.072-.643-4.091-1.841-5.781zm-239.85 8.852c8.61-13.231 13.144-28.493 13.144-44.349v-60.486h37.624v43.947c0 33.108 26.951 60.044 60.078 60.044s60.078-26.936 60.078-60.044v-43.947h37.624v60.486c0 15.854 4.534 31.118 13.143 44.349v100.187h-221.69v-100.187zm-151.061 226.736c0 7.536-6.131 13.668-13.667 13.668h-21.076v-68.287h34.744v54.619zm115.636-88.819c-5.523 0-10 4.478-10 10v4.2h-31.649v-4.2c0-5.522-4.477-10-10-10s-10 4.478-10 10v4.2h-88.73v-31.931h249.109v31.931h-88.73v-4.2c0-5.523-4.477-10-10-10zm77.652 102.487c-7.536 0-13.666-6.132-13.666-13.668v-54.619h34.743v68.287zm179.463-88.287h-138.385v-31.931h138.386v31.931z"/><path d="m316.91 431.34c-3.563-2.378-8.414-2.18-11.765.489-3.266 2.601-4.592 7.088-3.245 11.042 1.328 3.9 5.012 6.64 9.134 6.784 4.228.147 8.199-2.527 9.686-6.477 1.619-4.304-.003-9.276-3.81-11.838z"/></g></g></svg>